<svg width="100" height="36" viewBox="0 0 100 36" fill="none" xmlns="http://www.w3.org/2000/svg">
<rect width="100" height="36" rx="18" fill="#E95E10"/>
<path d="M15.3828 24.1562C14.4661 24.1562 13.6927 23.974 13.0625 23.6094C12.4375 23.2448 11.9661 22.7292 11.6484 22.0625C11.3307 21.3958 11.1719 20.612 11.1719 19.7109C11.1719 19.0599 11.2292 18.4297 11.3438 17.8203C11.4635 17.2109 11.6354 16.6354 11.8594 16.0938C12.0833 15.5469 12.3594 15.0495 12.6875 14.6016C13.0208 14.1484 13.401 13.7578 13.8281 13.4297C14.2552 13.1016 14.7266 12.849 15.2422 12.6719C15.763 12.4896 16.3255 12.3984 16.9297 12.3984C18.2109 12.3984 19.2109 12.7969 19.9297 13.5938C20.6536 14.3854 21.0156 15.487 21.0156 16.8984C21.0156 17.5286 20.9635 18.1458 20.8594 18.75C20.7552 19.349 20.599 19.9193 20.3906 20.4609C20.1823 21.0026 19.9219 21.5 19.6094 21.9531C19.2969 22.401 18.9323 22.7891 18.5156 23.1172C18.099 23.4453 17.6302 23.7005 17.1094 23.8828C16.5885 24.0651 16.013 24.1562 15.3828 24.1562ZM15.4297 22.9922C15.8776 22.9922 16.2917 22.9141 16.6719 22.7578C17.0521 22.6016 17.3958 22.3828 17.7031 22.1016C18.0156 21.8203 18.2891 21.4896 18.5234 21.1094C18.763 20.7292 18.9635 20.3125 19.125 19.8594C19.2865 19.401 19.4089 18.9193 19.4922 18.4141C19.5755 17.9089 19.6172 17.3932 19.6172 16.8672C19.6172 15.8255 19.3698 15.0156 18.875 14.4375C18.3854 13.8594 17.7057 13.5703 16.8359 13.5703C16.388 13.5703 15.9714 13.6458 15.5859 13.7969C15.2005 13.9427 14.849 14.1536 14.5312 14.4297C14.2135 14.7005 13.9323 15.0234 13.6875 15.3984C13.4479 15.7734 13.2448 16.1901 13.0781 16.6484C12.9115 17.1016 12.7839 17.5833 12.6953 18.0938C12.612 18.6042 12.5703 19.1328 12.5703 19.6797C12.5703 20.3672 12.6823 20.9583 12.9062 21.4531C13.1302 21.9479 13.4557 22.3281 13.8828 22.5938C14.3099 22.8594 14.8255 22.9922 15.4297 22.9922ZM21.9844 24L23.8047 15.4375H24.8672L24.6641 17.0938H24.7422C24.9609 16.7969 25.1953 16.5104 25.4453 16.2344C25.6953 15.9531 25.9792 15.724 26.2969 15.5469C26.6198 15.3698 26.9896 15.2812 27.4062 15.2812C27.5625 15.2812 27.7214 15.2917 27.8828 15.3125C28.0443 15.3281 28.1953 15.3568 28.3359 15.3984L28.0547 16.5625C27.9141 16.5312 27.776 16.5078 27.6406 16.4922C27.5104 16.4766 27.375 16.4688 27.2344 16.4688C26.8385 16.4688 26.4714 16.5729 26.1328 16.7812C25.7943 16.9844 25.4896 17.2578 25.2188 17.6016C24.9531 17.9453 24.7266 18.3281 24.5391 18.75C24.3568 19.1719 24.2188 19.6016 24.125 20.0391L23.2891 24H21.9844ZM31.8125 24.1562C31.1771 24.1562 30.6198 24.0365 30.1406 23.7969C29.6667 23.5521 29.2969 23.1927 29.0312 22.7188C28.7708 22.2448 28.6406 21.6562 28.6406 20.9531C28.6406 20.3438 28.7057 19.7578 28.8359 19.1953C28.9714 18.6328 29.1667 18.1146 29.4219 17.6406C29.6771 17.1667 29.987 16.7526 30.3516 16.3984C30.7161 16.0443 31.1302 15.7708 31.5938 15.5781C32.0625 15.3802 32.5729 15.2812 33.125 15.2812C33.4948 15.2812 33.862 15.3177 34.2266 15.3906C34.5964 15.4583 34.9297 15.5573 35.2266 15.6875L34.8594 16.7812C34.6406 16.6771 34.3828 16.5833 34.0859 16.5C33.7891 16.4167 33.4714 16.375 33.1328 16.375C32.6589 16.375 32.2266 16.4948 31.8359 16.7344C31.4505 16.974 31.1172 17.3073 30.8359 17.7344C30.5599 18.1562 30.3464 18.6406 30.1953 19.1875C30.0443 19.7344 29.9688 20.3177 29.9688 20.9375C29.9688 21.3802 30.0469 21.763 30.2031 22.0859C30.3594 22.4036 30.5833 22.6484 30.875 22.8203C31.1719 22.9922 31.526 23.0781 31.9375 23.0781C32.3177 23.0781 32.6745 23.026 33.0078 22.9219C33.3464 22.8177 33.6771 22.6927 34 22.5469V23.6562C33.7135 23.8021 33.3854 23.9219 33.0156 24.0156C32.651 24.1094 32.25 24.1562 31.8125 24.1562ZM30.0938 27.8438C29.9531 27.8438 29.8177 27.8333 29.6875 27.8125C29.5573 27.7969 29.4479 27.7786 29.3594 27.7578V26.9766C29.4635 26.9974 29.5703 27.013 29.6797 27.0234C29.7891 27.0339 29.8854 27.0391 29.9688 27.0391C30.2552 27.0391 30.4974 27.0052 30.6953 26.9375C30.8932 26.875 31.0443 26.776 31.1484 26.6406C31.2526 26.5104 31.3047 26.3464 31.3047 26.1484C31.3047 25.9141 31.2031 25.7396 31 25.625C30.8021 25.5104 30.5339 25.4349 30.1953 25.3984L30.9688 24H31.8047L31.3359 24.9297C31.5964 24.9974 31.8333 25.1198 32.0469 25.2969C32.2656 25.4792 32.375 25.763 32.375 26.1484C32.375 26.4714 32.2865 26.7604 32.1094 27.0156C31.9323 27.2708 31.6719 27.4714 31.3281 27.6172C30.9896 27.7682 30.5781 27.8438 30.0938 27.8438ZM38.2031 24.1562C37.7396 24.1562 37.3333 24.0443 36.9844 23.8203C36.6354 23.5964 36.3646 23.2656 36.1719 22.8281C35.9792 22.3906 35.8828 21.8568 35.8828 21.2266C35.8828 20.5964 35.9479 19.9896 36.0781 19.4062C36.2135 18.8229 36.4036 18.2812 36.6484 17.7812C36.8932 17.2812 37.1875 16.8438 37.5312 16.4688C37.8802 16.0938 38.2708 15.8021 38.7031 15.5938C39.1354 15.3854 39.6016 15.2812 40.1016 15.2812C40.487 15.2812 40.8203 15.3542 41.1016 15.5C41.388 15.6458 41.625 15.8385 41.8125 16.0781C42.0052 16.3125 42.1562 16.5625 42.2656 16.8281H42.3438L42.8438 15.4375H43.8359L42.0234 24H40.9844L41.2188 22.3438H41.1562C40.9219 22.6562 40.6536 22.9505 40.3516 23.2266C40.0495 23.5026 39.7188 23.7266 39.3594 23.8984C39 24.0703 38.6146 24.1562 38.2031 24.1562ZM38.625 23.0781C39.026 23.0781 39.4219 22.9323 39.8125 22.6406C40.2083 22.3438 40.5625 21.9453 40.875 21.4453C41.1927 20.9401 41.4349 20.3724 41.6016 19.7422C41.6849 19.4349 41.7396 19.1536 41.7656 18.8984C41.7969 18.638 41.8125 18.3958 41.8125 18.1719C41.8125 17.6354 41.6693 17.2031 41.3828 16.875C41.1016 16.5417 40.7161 16.375 40.2266 16.375C39.8776 16.375 39.5495 16.4635 39.2422 16.6406C38.9349 16.8125 38.6562 17.0547 38.4062 17.3672C38.1615 17.6745 37.9505 18.0339 37.7734 18.4453C37.5964 18.8516 37.4583 19.2943 37.3594 19.7734C37.2656 20.2526 37.2188 20.7448 37.2188 21.25C37.2188 21.849 37.3411 22.3047 37.5859 22.6172C37.8307 22.9245 38.1771 23.0781 38.625 23.0781ZM44.6094 24L46.4297 15.4375H47.4922L47.2891 17.0938H47.3672C47.5547 16.8229 47.7812 16.5495 48.0469 16.2734C48.3125 15.9922 48.6198 15.7578 48.9688 15.5703C49.3229 15.3776 49.724 15.2812 50.1719 15.2812C50.776 15.2812 51.2344 15.4557 51.5469 15.8047C51.8594 16.1536 52.0417 16.6302 52.0938 17.2344H52.1484C52.3568 16.9167 52.6068 16.6094 52.8984 16.3125C53.1901 16.0104 53.5208 15.763 53.8906 15.5703C54.2656 15.3776 54.6771 15.2812 55.125 15.2812C55.7865 15.2812 56.2969 15.4609 56.6562 15.8203C57.0156 16.1797 57.1953 16.7005 57.1953 17.3828C57.1953 17.6276 57.1797 17.8594 57.1484 18.0781C57.1224 18.2969 57.0807 18.5208 57.0234 18.75L55.9141 24H54.6016L55.7578 18.6094C55.8047 18.375 55.8385 18.1719 55.8594 18C55.8854 17.8281 55.8984 17.6641 55.8984 17.5078C55.8984 17.1589 55.8047 16.8828 55.6172 16.6797C55.4297 16.4766 55.1406 16.375 54.75 16.375C54.474 16.375 54.1875 16.4505 53.8906 16.6016C53.5938 16.7526 53.3047 16.9818 53.0234 17.2891C52.7474 17.5911 52.4974 17.974 52.2734 18.4375C52.0495 18.901 51.8698 19.4453 51.7344 20.0703L50.8984 24H49.6016L50.7422 18.6328C50.7891 18.3932 50.8229 18.1875 50.8438 18.0156C50.8698 17.8385 50.8828 17.6875 50.8828 17.5625C50.8828 17.1927 50.7969 16.9036 50.625 16.6953C50.4531 16.4818 50.1719 16.375 49.7812 16.375C49.5052 16.375 49.2161 16.4479 48.9141 16.5938C48.6172 16.7396 48.3281 16.9688 48.0469 17.2812C47.7656 17.5938 47.5078 17.9922 47.2734 18.4766C47.0391 18.9609 46.8516 19.5443 46.7109 20.2266L45.9141 24H44.6094ZM61.9922 24.1562C61.3516 24.1562 60.7995 24.0286 60.3359 23.7734C59.8724 23.513 59.5156 23.1432 59.2656 22.6641C59.0208 22.1797 58.8984 21.6016 58.8984 20.9297C58.8984 20.237 58.9974 19.5573 59.1953 18.8906C59.3984 18.2188 59.6875 17.612 60.0625 17.0703C60.4375 16.5234 60.888 16.0885 61.4141 15.7656C61.9453 15.4427 62.5391 15.2812 63.1953 15.2812C63.9818 15.2812 64.5781 15.4583 64.9844 15.8125C65.3906 16.1615 65.5938 16.6432 65.5938 17.2578C65.5938 17.6901 65.4922 18.0885 65.2891 18.4531C65.0911 18.8177 64.7839 19.1354 64.3672 19.4062C63.9557 19.6719 63.4323 19.8802 62.7969 20.0312C62.1667 20.1771 61.4193 20.25 60.5547 20.25H60.2578C60.2474 20.3438 60.237 20.4479 60.2266 20.5625C60.2214 20.6771 60.2188 20.7839 60.2188 20.8828C60.2188 21.5703 60.3854 22.1094 60.7188 22.5C61.0521 22.8854 61.5521 23.0781 62.2188 23.0781C62.6302 23.0781 63.0182 23.0208 63.3828 22.9062C63.7526 22.7865 64.138 22.6302 64.5391 22.4375V23.5547C64.1536 23.7318 63.7656 23.8776 63.375 23.9922C62.9844 24.1016 62.5234 24.1562 61.9922 24.1562ZM60.4453 19.1875H60.6328C61.2995 19.1875 61.9115 19.1302 62.4688 19.0156C63.026 18.8958 63.474 18.7031 63.8125 18.4375C64.151 18.1667 64.3203 17.8073 64.3203 17.3594C64.3203 17.0677 64.2214 16.8281 64.0234 16.6406C63.8255 16.4531 63.5234 16.3594 63.1172 16.3594C62.7578 16.3594 62.4036 16.4714 62.0547 16.6953C61.7057 16.9141 61.388 17.2344 61.1016 17.6562C60.8203 18.0781 60.6016 18.5885 60.4453 19.1875ZM66.4766 24L68.3125 15.3984H69.4609L69.2578 17.0469H69.2734C69.4714 16.776 69.7083 16.5026 69.9844 16.2266C70.2656 15.9453 70.5911 15.7109 70.9609 15.5234C71.3359 15.3307 71.7604 15.2344 72.2344 15.2344C72.6927 15.2344 73.0859 15.3203 73.4141 15.4922C73.7422 15.6589 73.9948 15.9036 74.1719 16.2266C74.349 16.5443 74.4375 16.9297 74.4375 17.3828C74.4375 17.6224 74.4193 17.8646 74.3828 18.1094C74.3464 18.3542 74.3073 18.5729 74.2656 18.7656L73.125 24H71.7422L72.8984 18.5938C72.9453 18.3594 72.9818 18.1589 73.0078 17.9922C73.0391 17.8255 73.0547 17.6693 73.0547 17.5234C73.0547 17.1589 72.9557 16.8828 72.7578 16.6953C72.5599 16.5078 72.2682 16.4141 71.8828 16.4141C71.5026 16.4141 71.1016 16.5443 70.6797 16.8047C70.2578 17.0651 69.8672 17.4766 69.5078 18.0391C69.1484 18.5964 68.8698 19.3255 68.6719 20.2266L67.8672 24H66.4766ZM78.1875 24.1562C77.6198 24.1562 77.1458 24.0208 76.7656 23.75C76.3906 23.474 76.2031 23.0026 76.2031 22.3359C76.2031 22.1745 76.2135 22 76.2344 21.8125C76.2552 21.6198 76.2891 21.4219 76.3359 21.2188L77.3438 16.4297H76.0234L76.1484 15.8281L77.5703 15.2812L78.5078 13.4688H79.2812L78.8516 15.4375H81.0547L80.8516 16.4297H78.6562L77.6406 21.2344C77.6042 21.3802 77.5703 21.5365 77.5391 21.7031C77.513 21.8698 77.5 22.0286 77.5 22.1797C77.5 22.4401 77.5677 22.6589 77.7031 22.8359C77.8385 23.0078 78.0651 23.0938 78.3828 23.0938C78.5807 23.0938 78.7682 23.0755 78.9453 23.0391C79.1276 23.0026 79.3203 22.9505 79.5234 22.8828V23.8828C79.3932 23.9453 79.1953 24.0052 78.9297 24.0625C78.6693 24.125 78.4219 24.1562 78.1875 24.1562ZM84.5234 24.125C83.8672 24.125 83.3021 23.9922 82.8281 23.7266C82.3542 23.4557 81.9896 23.0755 81.7344 22.5859C81.4844 22.0911 81.3594 21.5078 81.3594 20.8359C81.3594 20.2943 81.4193 19.7604 81.5391 19.2344C81.6589 18.7031 81.8359 18.2031 82.0703 17.7344C82.3047 17.2604 82.5938 16.8438 82.9375 16.4844C83.2865 16.1198 83.6875 15.8359 84.1406 15.6328C84.5938 15.4245 85.099 15.3203 85.6562 15.3203C86.3229 15.3203 86.8906 15.4557 87.3594 15.7266C87.8333 15.9922 88.1953 16.3724 88.4453 16.8672C88.7005 17.362 88.8281 17.9479 88.8281 18.625C88.8281 19.1562 88.7682 19.6849 88.6484 20.2109C88.5339 20.737 88.3594 21.237 88.125 21.7109C87.8958 22.1797 87.6068 22.5964 87.2578 22.9609C86.9141 23.3203 86.513 23.6042 86.0547 23.8125C85.6016 24.0208 85.0911 24.125 84.5234 24.125ZM84.6016 23.0469C84.9245 23.0469 85.2318 22.9792 85.5234 22.8438C85.8151 22.7083 86.0807 22.513 86.3203 22.2578C86.5599 21.9974 86.7656 21.6823 86.9375 21.3125C87.1146 20.9375 87.25 20.513 87.3438 20.0391C87.4427 19.5651 87.4922 19.0443 87.4922 18.4766C87.4922 18.138 87.4323 17.8099 87.3125 17.4922C87.1927 17.1745 87 16.9141 86.7344 16.7109C86.4688 16.5026 86.1146 16.3984 85.6719 16.3984C85.3073 16.3984 84.9688 16.474 84.6562 16.625C84.349 16.776 84.0729 16.9896 83.8281 17.2656C83.5833 17.5417 83.375 17.8672 83.2031 18.2422C83.0365 18.6172 82.9062 19.0286 82.8125 19.4766C82.724 19.9245 82.6797 20.3958 82.6797 20.8906C82.6797 21.5729 82.8464 22.1042 83.1797 22.4844C83.513 22.8594 83.987 23.0469 84.6016 23.0469Z" fill="#D9D9D9"/>
</svg>
