<svg width="84" height="36" viewBox="0 0 84 36" fill="none" xmlns="http://www.w3.org/2000/svg">
<rect width="84" height="36" rx="18" fill="#E5245E"/>
<path d="M13.1719 24L15.5859 12.5781H21.375L21.1406 13.75H16.6562L15.7734 17.9531H19.9688L19.7188 19.125H15.5156L14.4844 24H13.1719ZM23.25 24.1562C22.7865 24.1562 22.3802 24.0443 22.0312 23.8203C21.6823 23.5964 21.4115 23.2656 21.2188 22.8281C21.026 22.3906 20.9297 21.8568 20.9297 21.2266C20.9297 20.5964 20.9948 19.9896 21.125 19.4062C21.2604 18.8229 21.4505 18.2812 21.6953 17.7812C21.9401 17.2812 22.2344 16.8438 22.5781 16.4688C22.9271 16.0938 23.3177 15.8021 23.75 15.5938C24.1823 15.3854 24.6484 15.2812 25.1484 15.2812C25.5339 15.2812 25.8672 15.3542 26.1484 15.5C26.4349 15.6458 26.6719 15.8385 26.8594 16.0781C27.0521 16.3125 27.2031 16.5625 27.3125 16.8281H27.3906L27.8906 15.4375H28.8828L27.0703 24H26.0312L26.2656 22.3438H26.2031C25.9688 22.6562 25.7005 22.9505 25.3984 23.2266C25.0964 23.5026 24.7656 23.7266 24.4062 23.8984C24.0469 24.0703 23.6615 24.1562 23.25 24.1562ZM23.6719 23.0781C24.0729 23.0781 24.4688 22.9323 24.8594 22.6406C25.2552 22.3438 25.6094 21.9453 25.9219 21.4453C26.2396 20.9401 26.4818 20.3724 26.6484 19.7422C26.7318 19.4349 26.7865 19.1536 26.8125 18.8984C26.8438 18.638 26.8594 18.3958 26.8594 18.1719C26.8594 17.6354 26.7161 17.2031 26.4297 16.875C26.1484 16.5417 25.763 16.375 25.2734 16.375C24.9245 16.375 24.5964 16.4635 24.2891 16.6406C23.9818 16.8125 23.7031 17.0547 23.4531 17.3672C23.2083 17.6745 22.9974 18.0339 22.8203 18.4453C22.6432 18.8516 22.5052 19.2943 22.4062 19.7734C22.3125 20.2526 22.2656 20.7448 22.2656 21.25C22.2656 21.849 22.388 22.3047 22.6328 22.6172C22.8776 22.9245 23.224 23.0781 23.6719 23.0781ZM29.6562 24L31.4766 15.4375H32.5391L32.3359 17.0938H32.4141C32.6016 16.8229 32.8281 16.5495 33.0938 16.2734C33.3594 15.9922 33.6667 15.7578 34.0156 15.5703C34.3698 15.3776 34.7708 15.2812 35.2188 15.2812C35.8229 15.2812 36.2812 15.4557 36.5938 15.8047C36.9062 16.1536 37.0885 16.6302 37.1406 17.2344H37.1953C37.4036 16.9167 37.6536 16.6094 37.9453 16.3125C38.237 16.0104 38.5677 15.763 38.9375 15.5703C39.3125 15.3776 39.724 15.2812 40.1719 15.2812C40.8333 15.2812 41.3438 15.4609 41.7031 15.8203C42.0625 16.1797 42.2422 16.7005 42.2422 17.3828C42.2422 17.6276 42.2266 17.8594 42.1953 18.0781C42.1693 18.2969 42.1276 18.5208 42.0703 18.75L40.9609 24H39.6484L40.8047 18.6094C40.8516 18.375 40.8854 18.1719 40.9062 18C40.9323 17.8281 40.9453 17.6641 40.9453 17.5078C40.9453 17.1589 40.8516 16.8828 40.6641 16.6797C40.4766 16.4766 40.1875 16.375 39.7969 16.375C39.5208 16.375 39.2344 16.4505 38.9375 16.6016C38.6406 16.7526 38.3516 16.9818 38.0703 17.2891C37.7943 17.5911 37.5443 17.974 37.3203 18.4375C37.0964 18.901 36.9167 19.4453 36.7812 20.0703L35.9453 24H34.6484L35.7891 18.6328C35.8359 18.3932 35.8698 18.1875 35.8906 18.0156C35.9167 17.8385 35.9297 17.6875 35.9297 17.5625C35.9297 17.1927 35.8438 16.9036 35.6719 16.6953C35.5 16.4818 35.2188 16.375 34.8281 16.375C34.5521 16.375 34.263 16.4479 33.9609 16.5938C33.6641 16.7396 33.375 16.9688 33.0938 17.2812C32.8125 17.5938 32.5547 17.9922 32.3203 18.4766C32.0859 18.9609 31.8984 19.5443 31.7578 20.2266L30.9609 24H29.6562ZM43.6094 24L45.4297 15.4375H46.7344L44.9141 24H43.6094ZM45.5 14.3047V14.1094C45.6927 13.901 45.901 13.6589 46.125 13.3828C46.349 13.1068 46.5677 12.8255 46.7812 12.5391C47 12.2474 47.1849 11.9818 47.3359 11.7422H48.8125V11.8984C48.6979 12.0443 48.5417 12.224 48.3438 12.4375C48.151 12.6458 47.9349 12.8672 47.6953 13.1016C47.4609 13.3307 47.224 13.5521 46.9844 13.7656C46.7448 13.974 46.5208 14.1536 46.3125 14.3047H45.5ZM47.6406 24L50.2344 11.8438H51.5312L48.9453 24H47.6406ZM51.7031 24L53.5234 15.4375H54.8281L53.0078 24H51.7031ZM54.6172 13.9375C54.4089 13.9375 54.2344 13.8776 54.0938 13.7578C53.9583 13.6328 53.8906 13.4583 53.8906 13.2344C53.8906 13.0625 53.9245 12.901 53.9922 12.75C54.0651 12.599 54.1667 12.4792 54.2969 12.3906C54.4323 12.2969 54.5964 12.25 54.7891 12.25C55.0182 12.25 55.1901 12.3099 55.3047 12.4297C55.4193 12.5495 55.4766 12.7161 55.4766 12.9297C55.4766 13.237 55.388 13.4818 55.2109 13.6641C55.0339 13.8464 54.8359 13.9375 54.6172 13.9375ZM58.3906 24.1562C57.9271 24.1562 57.5208 24.0443 57.1719 23.8203C56.8229 23.5964 56.5521 23.2656 56.3594 22.8281C56.1667 22.3906 56.0703 21.8568 56.0703 21.2266C56.0703 20.5964 56.1354 19.9896 56.2656 19.4062C56.401 18.8229 56.5911 18.2812 56.8359 17.7812C57.0807 17.2812 57.375 16.8438 57.7188 16.4688C58.0677 16.0938 58.4583 15.8021 58.8906 15.5938C59.3229 15.3854 59.7891 15.2812 60.2891 15.2812C60.6745 15.2812 61.0078 15.3542 61.2891 15.5C61.5755 15.6458 61.8125 15.8385 62 16.0781C62.1927 16.3125 62.3438 16.5625 62.4531 16.8281H62.5312L63.0312 15.4375H64.0234L62.2109 24H61.1719L61.4062 22.3438H61.3438C61.1094 22.6562 60.8411 22.9505 60.5391 23.2266C60.237 23.5026 59.9062 23.7266 59.5469 23.8984C59.1875 24.0703 58.8021 24.1562 58.3906 24.1562ZM58.8125 23.0781C59.2135 23.0781 59.6094 22.9323 60 22.6406C60.3958 22.3438 60.75 21.9453 61.0625 21.4453C61.3802 20.9401 61.6224 20.3724 61.7891 19.7422C61.8724 19.4349 61.9271 19.1536 61.9531 18.8984C61.9844 18.638 62 18.3958 62 18.1719C62 17.6354 61.8568 17.2031 61.5703 16.875C61.2891 16.5417 60.9036 16.375 60.4141 16.375C60.0651 16.375 59.737 16.4635 59.4297 16.6406C59.1224 16.8125 58.8438 17.0547 58.5938 17.3672C58.349 17.6745 58.138 18.0339 57.9609 18.4453C57.7839 18.8516 57.6458 19.2943 57.5469 19.7734C57.4531 20.2526 57.4062 20.7448 57.4062 21.25C57.4062 21.849 57.5286 22.3047 57.7734 22.6172C58.0182 22.9245 58.3646 23.0781 58.8125 23.0781ZM66.8359 24.1562C66.3151 24.1562 65.8568 24.1042 65.4609 24C65.0703 23.8958 64.7292 23.7656 64.4375 23.6094V22.4062C64.7135 22.5729 65.0625 22.7292 65.4844 22.875C65.9115 23.0208 66.349 23.0938 66.7969 23.0938C67.2396 23.0938 67.6068 23.0339 67.8984 22.9141C68.1953 22.7943 68.4167 22.6302 68.5625 22.4219C68.7135 22.2083 68.7891 21.9609 68.7891 21.6797C68.7891 21.4557 68.7396 21.263 68.6406 21.1016C68.5469 20.9349 68.3906 20.7734 68.1719 20.6172C67.9583 20.4609 67.6719 20.2812 67.3125 20.0781C66.9115 19.8542 66.5729 19.6276 66.2969 19.3984C66.0208 19.1693 65.8099 18.9193 65.6641 18.6484C65.5234 18.3724 65.4531 18.0521 65.4531 17.6875C65.4531 17.1979 65.5729 16.7734 65.8125 16.4141C66.0521 16.0547 66.388 15.776 66.8203 15.5781C67.2578 15.3802 67.7682 15.2812 68.3516 15.2812C68.8672 15.2812 69.3438 15.3411 69.7812 15.4609C70.2188 15.5755 70.5964 15.7083 70.9141 15.8594L70.4922 16.8984C70.2214 16.7682 69.9115 16.6484 69.5625 16.5391C69.2135 16.4297 68.8099 16.375 68.3516 16.375C67.862 16.375 67.4714 16.487 67.1797 16.7109C66.8932 16.9349 66.75 17.237 66.75 17.6172C66.75 17.8151 66.7917 17.9922 66.875 18.1484C66.9635 18.3047 67.1146 18.4609 67.3281 18.6172C67.5417 18.7682 67.8333 18.9453 68.2031 19.1484C68.5625 19.3568 68.8854 19.5703 69.1719 19.7891C69.4635 20.0026 69.6927 20.25 69.8594 20.5312C70.0312 20.8073 70.1172 21.1484 70.1172 21.5547C70.1172 22.112 69.9844 22.5859 69.7188 22.9766C69.4531 23.362 69.0729 23.6562 68.5781 23.8594C68.0885 24.0573 67.5078 24.1562 66.8359 24.1562Z" fill="#D9D9D9"/>
</svg>
