<svg width="84" height="36" viewBox="0 0 84 36" fill="none" xmlns="http://www.w3.org/2000/svg">
<rect width="84" height="36" rx="18" fill="#0C51A7"/>
<path d="M14.6875 24L17.1016 12.5781H18.4219L17.3828 17.4453H22.6016L23.6328 12.5781H24.9297L22.5156 24H21.2109L22.3438 18.6172H17.1328L16 24H14.6875ZM25.3438 24L27.1641 15.4375H28.4688L26.6484 24H25.3438ZM28.2578 13.9375C28.0495 13.9375 27.875 13.8776 27.7344 13.7578C27.599 13.6328 27.5312 13.4583 27.5312 13.2344C27.5312 13.0625 27.5651 12.901 27.6328 12.75C27.7057 12.599 27.8073 12.4792 27.9375 12.3906C28.0729 12.2969 28.237 12.25 28.4297 12.25C28.6589 12.25 28.8307 12.3099 28.9453 12.4297C29.0599 12.5495 29.1172 12.7161 29.1172 12.9297C29.1172 13.237 29.0286 13.4818 28.8516 13.6641C28.6745 13.8464 28.4766 13.9375 28.2578 13.9375ZM31.4297 24.1562C30.9089 24.1562 30.4505 24.1042 30.0547 24C29.6641 23.8958 29.3229 23.7656 29.0312 23.6094V22.4062C29.3073 22.5729 29.6562 22.7292 30.0781 22.875C30.5052 23.0208 30.9427 23.0938 31.3906 23.0938C31.8333 23.0938 32.2005 23.0339 32.4922 22.9141C32.7891 22.7943 33.0104 22.6302 33.1562 22.4219C33.3073 22.2083 33.3828 21.9609 33.3828 21.6797C33.3828 21.4557 33.3333 21.263 33.2344 21.1016C33.1406 20.9349 32.9844 20.7734 32.7656 20.6172C32.5521 20.4609 32.2656 20.2812 31.9062 20.0781C31.5052 19.8542 31.1667 19.6276 30.8906 19.3984C30.6146 19.1693 30.4036 18.9193 30.2578 18.6484C30.1172 18.3724 30.0469 18.0521 30.0469 17.6875C30.0469 17.1979 30.1667 16.7734 30.4062 16.4141C30.6458 16.0547 30.9818 15.776 31.4141 15.5781C31.8516 15.3802 32.362 15.2812 32.9453 15.2812C33.4609 15.2812 33.9375 15.3411 34.375 15.4609C34.8125 15.5755 35.1901 15.7083 35.5078 15.8594L35.0859 16.8984C34.8151 16.7682 34.5052 16.6484 34.1562 16.5391C33.8073 16.4297 33.4036 16.375 32.9453 16.375C32.4557 16.375 32.0651 16.487 31.7734 16.7109C31.487 16.9349 31.3438 17.237 31.3438 17.6172C31.3438 17.8151 31.3854 17.9922 31.4688 18.1484C31.5573 18.3047 31.7083 18.4609 31.9219 18.6172C32.1354 18.7682 32.4271 18.9453 32.7969 19.1484C33.1562 19.3568 33.4792 19.5703 33.7656 19.7891C34.0573 20.0026 34.2865 20.25 34.4531 20.5312C34.625 20.8073 34.7109 21.1484 34.7109 21.5547C34.7109 22.112 34.5781 22.5859 34.3125 22.9766C34.0469 23.362 33.6667 23.6562 33.1719 23.8594C32.6823 24.0573 32.1016 24.1562 31.4297 24.1562ZM38.7344 24.1562C38.1667 24.1562 37.6927 24.0208 37.3125 23.75C36.9375 23.474 36.75 23.0026 36.75 22.3359C36.75 22.1745 36.7604 22 36.7812 21.8125C36.8021 21.6198 36.8359 21.4219 36.8828 21.2188L37.8906 16.4297H36.5703L36.6953 15.8281L38.1172 15.2812L39.0547 13.4688H39.8281L39.3984 15.4375H41.6016L41.3984 16.4297H39.2031L38.1875 21.2344C38.151 21.3802 38.1172 21.5365 38.0859 21.7031C38.0599 21.8698 38.0469 22.0286 38.0469 22.1797C38.0469 22.4401 38.1146 22.6589 38.25 22.8359C38.3854 23.0078 38.612 23.0938 38.9297 23.0938C39.1276 23.0938 39.3151 23.0755 39.4922 23.0391C39.6745 23.0026 39.8672 22.9505 40.0703 22.8828V23.8828C39.9401 23.9453 39.7422 24.0052 39.4766 24.0625C39.2161 24.125 38.9688 24.1562 38.7344 24.1562ZM45.0703 24.125C44.4141 24.125 43.849 23.9922 43.375 23.7266C42.901 23.4557 42.5365 23.0755 42.2812 22.5859C42.0312 22.0911 41.9062 21.5078 41.9062 20.8359C41.9062 20.2943 41.9661 19.7604 42.0859 19.2344C42.2057 18.7031 42.3828 18.2031 42.6172 17.7344C42.8516 17.2604 43.1406 16.8438 43.4844 16.4844C43.8333 16.1198 44.2344 15.8359 44.6875 15.6328C45.1406 15.4245 45.6458 15.3203 46.2031 15.3203C46.8698 15.3203 47.4375 15.4557 47.9062 15.7266C48.3802 15.9922 48.7422 16.3724 48.9922 16.8672C49.2474 17.362 49.375 17.9479 49.375 18.625C49.375 19.1562 49.3151 19.6849 49.1953 20.2109C49.0807 20.737 48.9062 21.237 48.6719 21.7109C48.4427 22.1797 48.1536 22.5964 47.8047 22.9609C47.4609 23.3203 47.0599 23.6042 46.6016 23.8125C46.1484 24.0208 45.638 24.125 45.0703 24.125ZM45.1484 23.0469C45.4714 23.0469 45.7786 22.9792 46.0703 22.8438C46.362 22.7083 46.6276 22.513 46.8672 22.2578C47.1068 21.9974 47.3125 21.6823 47.4844 21.3125C47.6615 20.9375 47.7969 20.513 47.8906 20.0391C47.9896 19.5651 48.0391 19.0443 48.0391 18.4766C48.0391 18.138 47.9792 17.8099 47.8594 17.4922C47.7396 17.1745 47.5469 16.9141 47.2812 16.7109C47.0156 16.5026 46.6615 16.3984 46.2188 16.3984C45.8542 16.3984 45.5156 16.474 45.2031 16.625C44.8958 16.776 44.6198 16.9896 44.375 17.2656C44.1302 17.5417 43.9219 17.8672 43.75 18.2422C43.5833 18.6172 43.4531 19.0286 43.3594 19.4766C43.2708 19.9245 43.2266 20.3958 43.2266 20.8906C43.2266 21.5729 43.3932 22.1042 43.7266 22.4844C44.0599 22.8594 44.5339 23.0469 45.1484 23.0469ZM45.7188 14.3047V14.1094C45.9115 13.901 46.1198 13.6589 46.3438 13.3828C46.5677 13.1068 46.7865 12.8255 47 12.5391C47.2188 12.2474 47.4036 11.9818 47.5547 11.7422H49.0312V11.8984C48.9167 12.0443 48.7604 12.224 48.5625 12.4375C48.3698 12.6458 48.1536 12.8672 47.9141 13.1016C47.6797 13.3307 47.4427 13.5521 47.2031 13.7656C46.9635 13.974 46.7396 14.1536 46.5312 14.3047H45.7188ZM50.5938 24L52.4141 15.4375H53.4766L53.2734 17.0938H53.3516C53.5703 16.7969 53.8047 16.5104 54.0547 16.2344C54.3047 15.9531 54.5885 15.724 54.9062 15.5469C55.2292 15.3698 55.599 15.2812 56.0156 15.2812C56.1719 15.2812 56.3307 15.2917 56.4922 15.3125C56.6536 15.3281 56.8047 15.3568 56.9453 15.3984L56.6641 16.5625C56.5234 16.5312 56.3854 16.5078 56.25 16.4922C56.1198 16.4766 55.9844 16.4688 55.8438 16.4688C55.4479 16.4688 55.0807 16.5729 54.7422 16.7812C54.4036 16.9844 54.099 17.2578 53.8281 17.6016C53.5625 17.9453 53.3359 18.3281 53.1484 18.75C52.9661 19.1719 52.8281 19.6016 52.7344 20.0391L51.8984 24H50.5938ZM56.9219 24L58.7422 15.4375H60.0469L58.2266 24H56.9219ZM59.8359 13.9375C59.6276 13.9375 59.4531 13.8776 59.3125 13.7578C59.1771 13.6328 59.1094 13.4583 59.1094 13.2344C59.1094 13.0625 59.1432 12.901 59.2109 12.75C59.2839 12.599 59.3854 12.4792 59.5156 12.3906C59.651 12.2969 59.8151 12.25 60.0078 12.25C60.237 12.25 60.4089 12.3099 60.5234 12.4297C60.638 12.5495 60.6953 12.7161 60.6953 12.9297C60.6953 13.237 60.6068 13.4818 60.4297 13.6641C60.2526 13.8464 60.0547 13.9375 59.8359 13.9375ZM63.6094 24.1562C63.1458 24.1562 62.7396 24.0443 62.3906 23.8203C62.0417 23.5964 61.7708 23.2656 61.5781 22.8281C61.3854 22.3906 61.2891 21.8568 61.2891 21.2266C61.2891 20.5964 61.3542 19.9896 61.4844 19.4062C61.6198 18.8229 61.8099 18.2812 62.0547 17.7812C62.2995 17.2812 62.5938 16.8438 62.9375 16.4688C63.2865 16.0938 63.6771 15.8021 64.1094 15.5938C64.5417 15.3854 65.0078 15.2812 65.5078 15.2812C65.8932 15.2812 66.2266 15.3542 66.5078 15.5C66.7943 15.6458 67.0312 15.8385 67.2188 16.0781C67.4115 16.3125 67.5625 16.5625 67.6719 16.8281H67.75L68.25 15.4375H69.2422L67.4297 24H66.3906L66.625 22.3438H66.5625C66.3281 22.6562 66.0599 22.9505 65.7578 23.2266C65.4557 23.5026 65.125 23.7266 64.7656 23.8984C64.4062 24.0703 64.0208 24.1562 63.6094 24.1562ZM64.0312 23.0781C64.4323 23.0781 64.8281 22.9323 65.2188 22.6406C65.6146 22.3438 65.9688 21.9453 66.2812 21.4453C66.599 20.9401 66.8411 20.3724 67.0078 19.7422C67.0911 19.4349 67.1458 19.1536 67.1719 18.8984C67.2031 18.638 67.2188 18.3958 67.2188 18.1719C67.2188 17.6354 67.0755 17.2031 66.7891 16.875C66.5078 16.5417 66.1224 16.375 65.6328 16.375C65.2839 16.375 64.9557 16.4635 64.6484 16.6406C64.3411 16.8125 64.0625 17.0547 63.8125 17.3672C63.5677 17.6745 63.3568 18.0339 63.1797 18.4453C63.0026 18.8516 62.8646 19.2943 62.7656 19.7734C62.6719 20.2526 62.625 20.7448 62.625 21.25C62.625 21.849 62.7474 22.3047 62.9922 22.6172C63.237 22.9245 63.5833 23.0781 64.0312 23.0781Z" fill="#D9D9D9"/>
</svg>
